<svg width="54" height="53" viewBox="0 0 54 53" fill="none" xmlns="http://www.w3.org/2000/svg">
<g clip-path="url(#clip0_0_153)">
<path d="M1.89276 27.9535L7.36012 31.8623C7.46469 31.9367 7.58292 31.9898 7.70803 32.0186C7.83315 32.0473 7.9627 32.0512 8.08929 32.0299C8.21588 32.0086 8.33704 31.9624 8.44582 31.8943C8.55461 31.8261 8.64889 31.7372 8.72331 31.6326L12.632 26.1652C12.7068 26.0604 12.7602 25.9417 12.7891 25.8162C12.8179 25.6906 12.8219 25.5607 12.8006 25.4337C12.7792 25.3066 12.7331 25.185 12.6648 25.0758C12.5965 24.9667 12.5074 24.8719 12.4024 24.7972C12.2975 24.7224 12.1789 24.6691 12.0534 24.6402C11.9279 24.6112 11.7979 24.6073 11.6708 24.6286C11.5438 24.65 11.4222 24.6961 11.3129 24.7644C11.2038 24.8328 11.1091 24.9219 11.0343 25.0269L8.50343 28.5692C7.79008 25.4474 7.82043 22.2016 8.59202 19.0938C9.36361 15.986 10.8548 13.1029 12.9455 10.6774C15.0361 8.25177 17.6674 6.35149 20.6275 5.12979C23.5874 3.90811 26.7932 3.39922 29.986 3.64417C33.1788 3.88913 36.2694 4.88107 39.0084 6.53999C41.7473 8.19891 44.0582 10.4784 45.7543 13.1945C47.4504 15.9105 48.4844 18.9873 48.7729 22.1765C49.0614 25.3657 48.5962 28.5781 47.4151 31.5544C47.3675 31.6738 47.3438 31.8013 47.3456 31.9298C47.3473 32.0583 47.3744 32.185 47.4252 32.3031C47.476 32.4211 47.5497 32.5278 47.6418 32.6174C47.7339 32.7069 47.8429 32.7774 47.9622 32.8248C48.0774 32.8702 48.2001 32.8934 48.3238 32.8931C48.5196 32.8933 48.7108 32.8348 48.8728 32.725C49.0348 32.6153 49.1602 32.4594 49.2326 32.2776C50.5248 29.0209 51.0345 25.5065 50.721 22.017C50.4073 18.5275 49.2792 15.1602 47.427 12.1861C45.5749 9.21212 43.0506 6.71428 40.0573 4.89361C37.0638 3.07293 33.685 1.98023 30.1923 1.70341C26.6997 1.42659 23.1908 1.97338 19.9479 3.29979C16.7052 4.6262 13.8189 6.6952 11.5215 9.34036C9.22395 11.9855 7.57939 15.1329 6.72001 18.5296C5.86064 21.9262 5.81045 25.4769 6.57349 28.8965L3.02629 26.3655C2.92265 26.282 2.803 26.2204 2.67472 26.1848C2.54644 26.1491 2.41221 26.14 2.28029 26.1581C2.14837 26.1761 2.02152 26.221 1.90755 26.2899C1.79358 26.3586 1.69488 26.4501 1.61752 26.5585C1.54015 26.6668 1.48576 26.7899 1.45767 26.92C1.42957 27.0502 1.42838 27.1847 1.45415 27.3154C1.47993 27.446 1.53213 27.57 1.60755 27.6797C1.68298 27.7894 1.78003 27.8826 1.89276 27.9535Z" fill="black"/>
<path d="M51.48 36.4306C49.5257 34.1194 46.3204 35.1798 44.5908 35.7465C43.4964 36.108 40.8727 37.2123 38.288 38.3068C38.4439 37.4807 38.338 36.6267 37.9851 35.8638C36.5877 32.6733 33.1383 33.2839 30.6171 33.7335C29.8391 33.9025 29.0478 34.0021 28.2523 34.0316C26.9046 34.0164 25.5744 33.7254 24.3436 33.1765C22.745 32.4886 21.0164 32.1553 19.2769 32.1992C15.9459 32.2609 12.6619 32.9955 9.6222 34.3589L9.07498 34.5836C4.53595 36.3914 2.58157 36.8019 2.58157 36.8019C2.39975 36.8381 2.23198 36.9254 2.09788 37.0534C1.96378 37.1815 1.86888 37.345 1.82425 37.525C1.79005 37.6666 1.02296 40.9451 3.1972 45.5526C5.06363 49.4613 7.24764 50.9612 8.74763 51.5037C8.90329 51.5594 9.07056 51.5748 9.23377 51.5483C9.39699 51.5218 9.55081 51.4544 9.68084 51.3522C9.68084 51.3522 10.9072 50.375 11.8453 49.8278C12.4658 49.4516 13.9756 49.2121 17.6694 50.2382C21.0868 51.1476 24.5997 51.6511 28.1351 51.7381C29.5118 51.7831 30.8862 51.5947 32.2002 51.1812C36.0552 49.7154 45.4362 44.8295 49.125 42.8262C51.0794 41.7611 52.1445 40.6129 52.3888 39.3132C52.4683 38.7952 52.4277 38.2658 52.2701 37.766C52.1126 37.2662 51.8423 36.8093 51.48 36.4306ZM50.4638 38.9565C50.3416 39.6162 49.5305 40.3832 48.1869 41.1162C45.0892 42.8115 35.3467 47.9174 31.5112 49.3587C28.8191 50.3652 22.0423 49.4271 18.1922 48.3815C16.6539 47.8984 15.0588 47.6192 13.4479 47.5509C12.5342 47.5067 11.626 47.7165 10.8241 48.1568C10.1646 48.5574 9.41211 49.1047 8.93817 49.4565C7.4724 48.7236 6.07991 47.0624 4.96102 44.7072C3.99497 42.801 3.54359 40.6755 3.65159 38.5412C5.74028 37.9314 7.79385 37.2072 9.80299 36.3719L10.3649 36.1422C13.1805 34.8702 16.2267 34.1885 19.3159 34.139C20.8086 34.1003 22.2909 34.3958 23.6547 35.0038C25.094 35.635 26.6465 35.9674 28.2181 35.981C29.1396 35.9525 30.0567 35.843 30.9591 35.6537C33.6512 35.165 35.4688 34.9843 36.1919 36.6308C36.3153 36.8841 36.3856 37.1602 36.3981 37.4417C36.4107 37.7231 36.3655 38.0042 36.2653 38.2676C35.9916 38.9419 35.2881 39.5576 34.1839 40.0559C33.2066 40.4663 32.4738 40.7839 32.1513 40.911C30.0796 41.722 28.2963 41.4386 26.5716 41.1649L25.6236 41.0184C25.3644 40.9835 25.102 41.0528 24.894 41.2114C24.686 41.3698 24.5495 41.6045 24.5145 41.8637C24.4796 42.1229 24.549 42.3853 24.7075 42.5933C24.866 42.8013 25.1006 42.9378 25.3598 42.9728C25.6579 43.0119 25.9608 43.0607 26.2637 43.1096C28.1546 43.4077 30.2946 43.7448 32.8646 42.7432C33.1627 42.6259 33.7587 42.3767 34.5503 42.0347C34.6968 41.976 34.8385 41.9174 34.9754 41.8539L36.2359 41.3164C39.4167 39.9484 43.7749 38.0722 45.2065 37.6031C47.4785 36.8556 49.0712 36.6259 49.985 37.6911C50.5761 38.3849 50.4931 38.8148 50.4638 38.9565ZM27.4998 12.2549V13.5497C27.161 13.6269 26.8329 13.745 26.5227 13.9014C26.0249 14.1521 25.6043 14.533 25.3058 15.0036C25.0073 15.4743 24.8419 16.017 24.8272 16.5741C24.7589 18.719 26.6888 19.4373 28.096 19.9601C29.7376 20.5707 30.236 20.8834 30.1626 21.6652C30.1479 21.9312 30.0545 22.1869 29.8946 22.4C29.7345 22.613 29.515 22.7738 29.2637 22.8622C28.7934 23.0417 28.2887 23.1129 27.7871 23.0706C27.2856 23.0283 26.7999 22.8737 26.3664 22.618C26.2652 22.5384 26.1495 22.4796 26.0257 22.4447C25.9019 22.4098 25.7724 22.3998 25.6447 22.4149C25.517 22.4302 25.3935 22.4704 25.2813 22.5333C25.1692 22.5962 25.0705 22.6806 24.9909 22.7817C24.9114 22.8827 24.8525 22.9984 24.8177 23.1223C24.7828 23.2461 24.7728 23.3755 24.7879 23.5032C24.8031 23.6309 24.8433 23.7544 24.9062 23.8666C24.9692 23.9788 25.0535 24.0775 25.1546 24.157C25.8427 24.651 26.6548 24.9437 27.4998 25.0023V26.1701C27.4998 26.4292 27.6028 26.6778 27.786 26.861C27.9693 27.0443 28.2179 27.1473 28.477 27.1473C28.7362 27.1473 28.9848 27.0443 29.168 26.861C29.3513 26.6778 29.4542 26.4292 29.4542 26.1701V24.8558C29.6586 24.8038 29.8594 24.7385 30.0552 24.6603C30.6289 24.4338 31.1277 24.0509 31.4947 23.5552C31.8618 23.0594 32.0825 22.4707 32.1317 21.8558C32.3663 19.4519 30.2214 18.6555 28.8044 18.1277C27.2848 17.5659 26.7817 17.2728 26.8012 16.6376C26.8063 16.4237 26.8711 16.2155 26.9886 16.0368C27.1061 15.858 27.2714 15.7157 27.4657 15.6261C27.9164 15.4307 28.4087 15.3502 28.8982 15.392C29.3877 15.4338 29.8592 15.5966 30.2702 15.8656C30.379 15.9381 30.5012 15.988 30.6296 16.0125C30.7579 16.0369 30.89 16.0353 31.0177 16.0079C31.1456 15.9803 31.2665 15.9274 31.3735 15.8524C31.4805 15.7772 31.5714 15.6815 31.6407 15.5706C31.71 15.4598 31.7563 15.3362 31.777 15.2071C31.7977 15.078 31.7923 14.9462 31.7611 14.8192C31.7298 14.6923 31.6736 14.5729 31.5953 14.4681C31.5172 14.3634 31.4188 14.2753 31.306 14.2092C30.7401 13.8561 30.1113 13.6155 29.4542 13.5008V12.2549C29.4542 11.9958 29.3513 11.7472 29.168 11.5639C28.9848 11.3807 28.7362 11.2777 28.477 11.2777C28.2179 11.2777 27.9693 11.3807 27.786 11.5639C27.6028 11.7472 27.4998 11.9958 27.4998 12.2549Z" fill="black"/>
<path d="M16.751 19.2125C16.751 21.5317 17.4387 23.7989 18.7271 25.7272C20.0157 27.6556 21.847 29.1585 23.9897 30.0461C26.1324 30.9336 28.4902 31.1659 30.7649 30.7133C33.0396 30.2609 35.1289 29.1441 36.7689 27.5042C38.4089 25.8643 39.5257 23.7748 39.9781 21.5001C40.4306 19.2255 40.1984 16.8677 39.3109 14.7251C38.4233 12.5824 36.9203 10.7509 34.992 9.46244C33.0636 8.17393 30.7964 7.48621 28.4772 7.48621C25.3672 7.48621 22.3846 8.72165 20.1855 10.9207C17.9864 13.1199 16.751 16.1024 16.751 19.2125ZM38.249 19.2125C38.249 21.1452 37.676 23.0344 36.6022 24.6415C35.5285 26.2484 34.0023 27.5009 32.2167 28.2405C30.4311 28.9801 28.4663 29.1736 26.5708 28.7966C24.6752 28.4195 22.9341 27.4888 21.5674 26.1222C20.2009 24.7556 19.2702 23.0145 18.8931 21.1189C18.5161 19.2233 18.7095 17.2585 19.4492 15.4729C20.1888 13.6873 21.4413 12.1612 23.0482 11.0874C24.6552 10.0137 26.5445 9.44058 28.4772 9.44058C31.0688 9.44058 33.5544 10.4701 35.3869 12.3027C37.2196 14.1353 38.249 16.6208 38.249 19.2125Z" fill="black"/>
</g>
<defs>
<clipPath id="clip0_0_153">
<rect width="53" height="53" fill="white" transform="translate(0.469971)"/>
</clipPath>
</defs>
</svg>
